<svg xmlns="http://www.w3.org/2000/svg" viewBox="0 0 900 1100" width="900" height="1100" role="img" aria-label="Abstract scanline portrait of the developer"><rect width="900" height="1100" fill="#0E1012"/><g stroke="#EDEBE6" stroke-width="1" opacity="0.05"><line x1="45" y1="0" x2="45" y2="1100"/><line x1="90" y1="0" x2="90" y2="1100"/><line x1="135" y1="0" x2="135" y2="1100"/><line x1="180" y1="0" x2="180" y2="1100"/><line x1="225" y1="0" x2="225" y2="1100"/><line x1="270" y1="0" x2="270" y2="1100"/><line x1="315" y1="0" x2="315" y2="1100"/><line x1="360" y1="0" x2="360" y2="1100"/><line x1="405" y1="0" x2="405" y2="1100"/><line x1="450" y1="0" x2="450" y2="1100"/><line x1="495" y1="0" x2="495" y2="1100"/><line x1="540" y1="0" x2="540" y2="1100"/><line x1="585" y1="0" x2="585" y2="1100"/><line x1="630" y1="0" x2="630" y2="1100"/><line x1="675" y1="0" x2="675" y2="1100"/><line x1="720" y1="0" x2="720" y2="1100"/><line x1="765" y1="0" x2="765" y2="1100"/><line x1="810" y1="0" x2="810" y2="1100"/><line x1="855" y1="0" x2="855" y2="1100"/><line x1="0" y1="45" x2="900" y2="45"/><line x1="0" y1="90" x2="900" y2="90"/><line x1="0" y1="135" x2="900" y2="135"/><line x1="0" y1="180" x2="900" y2="180"/><line x1="0" y1="225" x2="900" y2="225"/><line x1="0" y1="270" x2="900" y2="270"/><line x1="0" y1="315" x2="900" y2="315"/><line x1="0" y1="360" x2="900" y2="360"/><line x1="0" y1="405" x2="900" y2="405"/><line x1="0" y1="450" x2="900" y2="450"/><line x1="0" y1="495" x2="900" y2="495"/><line x1="0" y1="540" x2="900" y2="540"/><line x1="0" y1="585" x2="900" y2="585"/><line x1="0" y1="630" x2="900" y2="630"/><line x1="0" y1="675" x2="900" y2="675"/><line x1="0" y1="720" x2="900" y2="720"/><line x1="0" y1="765" x2="900" y2="765"/><line x1="0" y1="810" x2="900" y2="810"/><line x1="0" y1="855" x2="900" y2="855"/><line x1="0" y1="900" x2="900" y2="900"/><line x1="0" y1="945" x2="900" y2="945"/><line x1="0" y1="990" x2="900" y2="990"/><line x1="0" y1="1035" x2="900" y2="1035"/><line x1="0" y1="1080" x2="900" y2="1080"/></g><defs><radialGradient id="glow" cx="50%" cy="42%" r="52%"><stop offset="0%" stop-color="#C9F24E" stop-opacity=".16"/><stop offset="100%" stop-color="#C9F24E" stop-opacity="0"/></radialGradient><linearGradient id="scan" x1="0" y1="0" x2="0" y2="1"><stop offset="0%" stop-color="#EDEBE6" stop-opacity=".55"/><stop offset="70%" stop-color="#EDEBE6" stop-opacity=".16"/><stop offset="100%" stop-color="#EDEBE6" stop-opacity=".04"/></linearGradient><clipPath id="figure"><path d="M450 250c-92 0-150 62-150 150 0 60 22 96 48 120 40 36 62 74 68 132 4 40 6 84 6 128h256c0-44 2-88 6-128 6-58 28-96 68-132 26-24 48-60 48-120 0-88-58-150-150-150z"/></clipPath></defs><rect width="900" height="1100" fill="url(#glow)"/><g clip-path="url(#figure)"><rect x="240" y="220" width="420" height="580" fill="url(#scan)" opacity=".18"/><rect x="240" y="240" width="420" height="3" fill="#EDEBE6" fill-opacity=".55"/><rect x="240" y="246" width="420" height="3" fill="#EDEBE6" fill-opacity=".55"/><rect x="240" y="253" width="420" height="3" fill="#EDEBE6" fill-opacity=".55"/><rect x="240" y="261" width="420" height="3" fill="#EDEBE6" fill-opacity=".55"/><rect x="240" y="270" width="420" height="3" fill="#EDEBE6" fill-opacity=".55"/><rect x="240" y="280" width="420" height="3" fill="#EDEBE6" fill-opacity=".55"/><rect x="240" y="286" width="420" height="3" fill="#EDEBE6" fill-opacity=".55"/><rect x="240" y="293" width="420" height="3" fill="#EDEBE6" fill-opacity=".55"/><rect x="240" y="301" width="420" height="3" fill="#EDEBE6" fill-opacity=".55"/><rect x="240" y="310" width="420" height="3" fill="#EDEBE6" fill-opacity=".55"/><rect x="240" y="320" width="420" height="3" fill="#EDEBE6" fill-opacity=".55"/><rect x="240" y="326" width="420" height="3" fill="#EDEBE6" fill-opacity=".55"/><rect x="240" y="333" width="420" height="3" fill="#EDEBE6" fill-opacity=".55"/><rect x="240" y="341" width="420" height="3" fill="#EDEBE6" fill-opacity=".55"/><rect x="240" y="350" width="420" height="3" fill="#EDEBE6" fill-opacity=".55"/><rect x="240" y="360" width="420" height="3" fill="#EDEBE6" fill-opacity=".55"/><rect x="240" y="366" width="420" height="3" fill="#EDEBE6" fill-opacity=".55"/><rect x="240" y="373" width="420" height="3" fill="#EDEBE6" fill-opacity=".55"/><rect x="240" y="381" width="420" height="3" fill="#EDEBE6" fill-opacity=".55"/><rect x="240" y="390" width="420" height="3" fill="#EDEBE6" fill-opacity=".55"/><rect x="240" y="400" width="420" height="3" fill="#EDEBE6" fill-opacity=".55"/><rect x="240" y="406" width="420" height="3" fill="#EDEBE6" fill-opacity=".55"/><rect x="240" y="413" width="420" height="3" fill="#EDEBE6" fill-opacity=".55"/><rect x="240" y="421" width="420" height="3" fill="#EDEBE6" fill-opacity=".55"/><rect x="240" y="430" width="420" height="3" fill="#EDEBE6" fill-opacity=".55"/><rect x="240" y="440" width="420" height="3" fill="#EDEBE6" fill-opacity=".55"/><rect x="240" y="446" width="420" height="3" fill="#EDEBE6" fill-opacity=".55"/><rect x="240" y="453" width="420" height="3" fill="#EDEBE6" fill-opacity=".55"/><rect x="240" y="461" width="420" height="3" fill="#EDEBE6" fill-opacity=".55"/><rect x="240" y="470" width="420" height="3" fill="#EDEBE6" fill-opacity=".55"/><rect x="240" y="480" width="420" height="3" fill="#EDEBE6" fill-opacity=".55"/><rect x="240" y="486" width="420" height="3" fill="#EDEBE6" fill-opacity=".55"/><rect x="240" y="493" width="420" height="3" fill="#EDEBE6" fill-opacity=".55"/><rect x="240" y="501" width="420" height="3" fill="#EDEBE6" fill-opacity=".55"/><rect x="240" y="510" width="420" height="3" fill="#EDEBE6" fill-opacity=".55"/><rect x="240" y="520" width="420" height="3" fill="#EDEBE6" fill-opacity=".55"/><rect x="240" y="526" width="420" height="3" fill="#EDEBE6" fill-opacity=".55"/><rect x="240" y="533" width="420" height="3" fill="#EDEBE6" fill-opacity=".55"/><rect x="240" y="541" width="420" height="3" fill="#EDEBE6" fill-opacity=".55"/><rect x="240" y="550" width="420" height="3" fill="#EDEBE6" fill-opacity=".55"/><rect x="240" y="560" width="420" height="3" fill="#EDEBE6" fill-opacity=".55"/><rect x="240" y="566" width="420" height="3" fill="#EDEBE6" fill-opacity=".55"/><rect x="240" y="573" width="420" height="3" fill="#EDEBE6" fill-opacity=".55"/><rect x="240" y="581" width="420" height="3" fill="#EDEBE6" fill-opacity=".55"/><rect x="240" y="590" width="420" height="3" fill="#EDEBE6" fill-opacity=".55"/><rect x="240" y="600" width="420" height="3" fill="#EDEBE6" fill-opacity=".55"/><rect x="240" y="606" width="420" height="3" fill="#EDEBE6" fill-opacity=".55"/><rect x="240" y="613" width="420" height="3" fill="#EDEBE6" fill-opacity=".55"/><rect x="240" y="621" width="420" height="3" fill="#EDEBE6" fill-opacity=".55"/><rect x="240" y="630" width="420" height="3" fill="#EDEBE6" fill-opacity=".55"/><rect x="240" y="640" width="420" height="3" fill="#EDEBE6" fill-opacity=".55"/><rect x="240" y="646" width="420" height="3" fill="#EDEBE6" fill-opacity=".55"/><rect x="240" y="653" width="420" height="3" fill="#EDEBE6" fill-opacity=".55"/><rect x="240" y="661" width="420" height="3" fill="#EDEBE6" fill-opacity=".55"/><rect x="240" y="670" width="420" height="3" fill="#EDEBE6" fill-opacity=".55"/><rect x="240" y="680" width="420" height="3" fill="#EDEBE6" fill-opacity=".55"/><rect x="240" y="686" width="420" height="3" fill="#EDEBE6" fill-opacity=".55"/><rect x="240" y="693" width="420" height="3" fill="#EDEBE6" fill-opacity=".55"/><rect x="240" y="701" width="420" height="3" fill="#EDEBE6" fill-opacity=".55"/><rect x="240" y="710" width="420" height="3" fill="#EDEBE6" fill-opacity=".55"/><rect x="240" y="720" width="420" height="3" fill="#EDEBE6" fill-opacity=".55"/><rect x="240" y="726" width="420" height="3" fill="#EDEBE6" fill-opacity=".55"/><rect x="240" y="733" width="420" height="3" fill="#EDEBE6" fill-opacity=".55"/><rect x="240" y="741" width="420" height="3" fill="#EDEBE6" fill-opacity=".55"/><rect x="240" y="750" width="420" height="3" fill="#EDEBE6" fill-opacity=".55"/><rect x="240" y="760" width="420" height="3" fill="#EDEBE6" fill-opacity=".55"/><rect x="240" y="766" width="420" height="3" fill="#EDEBE6" fill-opacity=".55"/><rect x="240" y="773" width="420" height="3" fill="#EDEBE6" fill-opacity=".55"/><rect x="240" y="781" width="420" height="3" fill="#EDEBE6" fill-opacity=".55"/><rect x="240" y="790" width="420" height="3" fill="#EDEBE6" fill-opacity=".55"/></g><rect x="120" y="140" width="660" height="820" fill="none" stroke="#EDEBE6" stroke-opacity=".14"/><rect x="111" y="131" width="18" height="18" fill="none" stroke="#C9F24E" stroke-opacity=".8"/><rect x="771" y="131" width="18" height="18" fill="none" stroke="#C9F24E" stroke-opacity=".8"/><rect x="111" y="951" width="18" height="18" fill="none" stroke="#C9F24E" stroke-opacity=".8"/><rect x="771" y="951" width="18" height="18" fill="none" stroke="#C9F24E" stroke-opacity=".8"/><line x1="120" y1="500" x2="240" y2="500" stroke="#EDEBE6" stroke-opacity=".14"/><line x1="660" y1="500" x2="780" y2="500" stroke="#EDEBE6" stroke-opacity=".14"/><text x="120" y="120" font-family="JetBrains Mono, ui-monospace, Menlo, monospace" font-size="12" fill="#EDEBE6" fill-opacity=".45" letter-spacing="2.5">ID.001 — DEVELOPER</text><text x="780" y="120" text-anchor="end" font-family="JetBrains Mono, ui-monospace, Menlo, monospace" font-size="12" fill="#C9F24E" letter-spacing="2.5">STATUS: BUILDING</text><text x="120" y="1000" font-family="JetBrains Mono, ui-monospace, Menlo, monospace" font-size="12" fill="#EDEBE6" fill-opacity=".35" letter-spacing="2.5">CREATIVE FRONTEND / INTERACTION DESIGN</text><circle cx="450" cy="1010" r="5" fill="#C9F24E"/></svg>