<svg xmlns="http://www.w3.org/2000/svg" viewBox="0 0 1200 900" width="1200" height="900" role="img" aria-label="Mik's Coffee Shop website preview"><rect width="1200" height="900" fill="#14100D"/><g stroke="#F6EEDF" stroke-width="1" opacity="0.04"><line x1="50" y1="52" x2="50" y2="900"/><line x1="100" y1="52" x2="100" y2="900"/><line x1="150" y1="52" x2="150" y2="900"/><line x1="200" y1="52" x2="200" y2="900"/><line x1="250" y1="52" x2="250" y2="900"/><line x1="300" y1="52" x2="300" y2="900"/><line x1="350" y1="52" x2="350" y2="900"/><line x1="400" y1="52" x2="400" y2="900"/><line x1="450" y1="52" x2="450" y2="900"/><line x1="500" y1="52" x2="500" y2="900"/><line x1="550" y1="52" x2="550" y2="900"/><line x1="600" y1="52" x2="600" y2="900"/><line x1="650" y1="52" x2="650" y2="900"/><line x1="700" y1="52" x2="700" y2="900"/><line x1="750" y1="52" x2="750" y2="900"/><line x1="800" y1="52" x2="800" y2="900"/><line x1="850" y1="52" x2="850" y2="900"/><line x1="900" y1="52" x2="900" y2="900"/><line x1="950" y1="52" x2="950" y2="900"/><line x1="1000" y1="52" x2="1000" y2="900"/><line x1="1050" y1="52" x2="1050" y2="900"/><line x1="1100" y1="52" x2="1100" y2="900"/><line x1="1150" y1="52" x2="1150" y2="900"/><line x1="0" y1="102" x2="1200" y2="102"/><line x1="0" y1="152" x2="1200" y2="152"/><line x1="0" y1="202" x2="1200" y2="202"/><line x1="0" y1="252" x2="1200" y2="252"/><line x1="0" y1="302" x2="1200" y2="302"/><line x1="0" y1="352" x2="1200" y2="352"/><line x1="0" y1="402" x2="1200" y2="402"/><line x1="0" y1="452" x2="1200" y2="452"/><line x1="0" y1="502" x2="1200" y2="502"/><line x1="0" y1="552" x2="1200" y2="552"/><line x1="0" y1="602" x2="1200" y2="602"/><line x1="0" y1="652" x2="1200" y2="652"/><line x1="0" y1="702" x2="1200" y2="702"/><line x1="0" y1="752" x2="1200" y2="752"/><line x1="0" y1="802" x2="1200" y2="802"/><line x1="0" y1="852" x2="1200" y2="852"/></g>
<rect x="0" y="0" width="1200" height="52" fill="#1C1611"/>
<line x1="0" y1="52" x2="1200" y2="52" stroke="#F6EEDF" stroke-opacity=".10"/>
<circle cx="30" cy="26" r="5" fill="#F6EEDF" fill-opacity=".18"/>
<circle cx="50" cy="26" r="5" fill="#F6EEDF" fill-opacity=".12"/>
<circle cx="70" cy="26" r="5" fill="#F6EEDF" fill-opacity=".08"/>
<rect x="104" y="15" width="300" height="22" rx="11" fill="#F6EEDF" fill-opacity=".07"/>
<text x="120" y="31" font-family="JetBrains Mono, ui-monospace, Menlo, monospace" font-size="11" fill="#F6EEDF" fill-opacity=".38" letter-spacing="1">localhost:3000</text>
<text x="64" y="126" font-family="Space Grotesk, Helvetica Neue, Arial, sans-serif" font-size="22" font-weight="700" fill="#F6EEDF" letter-spacing="-.5">MIK'S</text><text x="700" y="126" font-family="JetBrains Mono, ui-monospace, Menlo, monospace" font-size="11" fill="#F6EEDF" fill-opacity=".55" letter-spacing="1.5">HOME</text><text x="810" y="126" font-family="JetBrains Mono, ui-monospace, Menlo, monospace" font-size="11" fill="#F6EEDF" fill-opacity=".55" letter-spacing="1.5">MENU</text><text x="920" y="126" font-family="JetBrains Mono, ui-monospace, Menlo, monospace" font-size="11" fill="#F6EEDF" fill-opacity=".55" letter-spacing="1.5">STORY</text><text x="1030" y="126" font-family="JetBrains Mono, ui-monospace, Menlo, monospace" font-size="11" fill="#F6EEDF" fill-opacity=".55" letter-spacing="1.5">VISIT</text><line x1="64" y1="152" x2="1136" y2="152" stroke="#F6EEDF" stroke-opacity=".10"/><text x="64" y="300" font-family="Space Grotesk, Helvetica Neue, Arial, sans-serif" font-size="86" font-weight="700" fill="#F6EEDF" letter-spacing="-3">BREWED</text><text x="64" y="392" font-family="Space Grotesk, Helvetica Neue, Arial, sans-serif" font-size="86" font-weight="700" fill="#F6EEDF" letter-spacing="-3">SLOW.</text><rect x="64" y="458" width="520" height="9" rx="4.5" fill="#F6EEDF" fill-opacity=".20"/><rect x="64" y="480" width="470" height="9" rx="4.5" fill="#F6EEDF" fill-opacity=".20"/><rect x="64" y="502" width="300" height="9" rx="4.5" fill="#F6EEDF" fill-opacity=".20"/><rect x="64" y="544" width="182" height="50" rx="25" fill="#E09A4E"/><text x="98" y="575" font-family="JetBrains Mono, ui-monospace, Menlo, monospace" font-size="12" fill="#14100D" letter-spacing="2">VIEW MENU</text><rect x="660" y="200" width="476" height="400" rx="6" fill="#241B14"/><g stroke="#F6EEDF" stroke-width="1" opacity="0.07"><line x1="700" y1="200" x2="700" y2="600"/><line x1="740" y1="200" x2="740" y2="600"/><line x1="780" y1="200" x2="780" y2="600"/><line x1="820" y1="200" x2="820" y2="600"/><line x1="860" y1="200" x2="860" y2="600"/><line x1="900" y1="200" x2="900" y2="600"/><line x1="940" y1="200" x2="940" y2="600"/><line x1="980" y1="200" x2="980" y2="600"/><line x1="1020" y1="200" x2="1020" y2="600"/><line x1="1060" y1="200" x2="1060" y2="600"/><line x1="1100" y1="200" x2="1100" y2="600"/><line x1="660" y1="240" x2="1136" y2="240"/><line x1="660" y1="280" x2="1136" y2="280"/><line x1="660" y1="320" x2="1136" y2="320"/><line x1="660" y1="360" x2="1136" y2="360"/><line x1="660" y1="400" x2="1136" y2="400"/><line x1="660" y1="440" x2="1136" y2="440"/><line x1="660" y1="480" x2="1136" y2="480"/><line x1="660" y1="520" x2="1136" y2="520"/><line x1="660" y1="560" x2="1136" y2="560"/></g><circle cx="1040" cy="296" r="118" fill="#E09A4E" fill-opacity=".30"/><circle cx="1040" cy="296" r="118" fill="none" stroke="#E09A4E" stroke-opacity=".5"/><rect x="700" y="472" width="180" height="10" rx="5" fill="#F6EEDF" fill-opacity=".55"/><rect x="700" y="496" width="120" height="10" rx="5" fill="#F6EEDF" fill-opacity=".28"/><rect x="614" y="450" width="188" height="74" rx="8" fill="#14100D" stroke="#F6EEDF" stroke-opacity=".14"/><circle cx="644" cy="487" r="13" fill="#E09A4E"/><rect x="670" y="478" width="100" height="8" rx="4" fill="#F6EEDF" fill-opacity=".45"/><rect x="670" y="494" width="66" height="8" rx="4" fill="#F6EEDF" fill-opacity=".22"/><rect x="64" y="668" width="339" height="176" rx="6" fill="#F6EEDF" fill-opacity=".05" stroke="#F6EEDF" stroke-opacity=".10"/><rect x="88" y="692" width="291" height="76" rx="4" fill="#2E2218"/><rect x="88" y="788" width="174" height="10" rx="5" fill="#F6EEDF" fill-opacity=".42"/><rect x="88" y="810" width="110" height="8" rx="4" fill="#F6EEDF" fill-opacity=".20"/><rect x="431" y="668" width="339" height="176" rx="6" fill="#F6EEDF" fill-opacity=".05" stroke="#F6EEDF" stroke-opacity=".10"/><rect x="455" y="692" width="291" height="76" rx="4" fill="#2E2218"/><rect x="455" y="788" width="174" height="10" rx="5" fill="#F6EEDF" fill-opacity=".42"/><rect x="455" y="810" width="110" height="8" rx="4" fill="#F6EEDF" fill-opacity=".20"/><rect x="455" y="692" width="291" height="76" rx="4" fill="none" stroke="#E09A4E" stroke-width="2"/><rect x="797" y="668" width="339" height="176" rx="6" fill="#F6EEDF" fill-opacity=".05" stroke="#F6EEDF" stroke-opacity=".10"/><rect x="821" y="692" width="291" height="76" rx="4" fill="#2E2218"/><rect x="821" y="788" width="174" height="10" rx="5" fill="#F6EEDF" fill-opacity=".42"/><rect x="821" y="810" width="110" height="8" rx="4" fill="#F6EEDF" fill-opacity=".20"/><text x="1136" y="874" text-anchor="end" font-family="JetBrains Mono, ui-monospace, Menlo, monospace" font-size="10" fill="#F6EEDF" fill-opacity=".30" letter-spacing="2">MIK'S COFFEE / 2026</text></svg>